HIERARCHY
ROOT Hips
{
 OFFSET 0.000000 0.000000 0.000000
 CHANNELS 6 Xposition Yposition Zposition Yrotation Xrotation Zrotation
 JOINT Chest
 {
  OFFSET 0.000000 9.581000 -0.001100
  CHANNELS 3 Yrotation Xrotation Zrotation
  JOINT Chest2
  {
   OFFSET 0.000000 9.561100 0.002200
   CHANNELS 3 Yrotation Xrotation Zrotation
   JOINT Chest3
   {
    OFFSET 0.000000 9.521100 0.000000
    CHANNELS 3 Yrotation Xrotation Zrotation
    JOINT Chest4
    {
     OFFSET 0.000000 9.511400 0.000000
     CHANNELS 3 Yrotation Xrotation Zrotation
     JOINT Neck
     {
      OFFSET 0.000000 14.375100 0.000000
      CHANNELS 3 Yrotation Xrotation Zrotation
      JOINT Head
      {
       OFFSET 0.000000 8.901200 0.004600
       CHANNELS 3 Yrotation Xrotation Zrotation
       End Site
       {
        OFFSET 0.000000 16.962200 0.002400
       }
      }
     }
     JOINT RightCollar
     {
      OFFSET -2.920100 9.518800 0.000000
      CHANNELS 3 Yrotation Xrotation Zrotation
      JOINT RightShoulder
      {
       OFFSET -13.664500 0.000000 0.000000
       CHANNELS 3 Yrotation Xrotation Zrotation
       JOINT RightElbow
       {
        OFFSET 0.000000 -29.999200 0.000000
        CHANNELS 3 Yrotation Xrotation Zrotation
        JOINT RightWrist
        {
         OFFSET 0.000000 -24.253600 0.000000
         CHANNELS 3 Yrotation Xrotation Zrotation
         End Site
         {
          OFFSET 0.000000 -17.918900 0.000000
         }
        }
       }
      }
     }
     JOINT LeftCollar
     {
      OFFSET 2.920100 9.518800 0.000000
      CHANNELS 3 Yrotation Xrotation Zrotation
      JOINT LeftShoulder
      {
       OFFSET 13.664500 0.000000 0.000000
       CHANNELS 3 Yrotation Xrotation Zrotation
       JOINT LeftElbow
       {
        OFFSET 0.000000 -29.999200 0.000000
        CHANNELS 3 Yrotation Xrotation Zrotation
        JOINT LeftWrist
        {
         OFFSET 0.000000 -24.253600 0.000000
         CHANNELS 3 Yrotation Xrotation Zrotation
         End Site
         {
          OFFSET 0.000000 -17.918900 0.000000
         }
        }
       }
      }
     }
    }
   }
  }
 }
 JOINT RightHip
 {
  OFFSET -7.797300 0.005300 0.000500
  CHANNELS 3 Yrotation Xrotation Zrotation
  JOINT RightKnee
  {
   OFFSET 0.000000 -40.663400 -0.000500
   CHANNELS 3 Yrotation Xrotation Zrotation
   JOINT RightAnkle
   {
    OFFSET 0.000000 -39.523700 -0.000900
    CHANNELS 3 Yrotation Xrotation Zrotation
    JOINT RightToe
    {
     OFFSET 0.000000 -6.418000 14.485300
     CHANNELS 3 Yrotation Xrotation Zrotation
     End Site
     {
      OFFSET 0.000000 -1.465200 6.326400
     }
    }
   }
  }
 }
 JOINT LeftHip
 {
  OFFSET 7.797300 0.005300 0.000500
  CHANNELS 3 Yrotation Xrotation Zrotation
  JOINT LeftKnee
  {
   OFFSET 0.000000 -40.663400 -0.000500
   CHANNELS 3 Yrotation Xrotation Zrotation
   JOINT LeftAnkle
   {
    OFFSET 0.000000 -39.523700 -0.000900
    CHANNELS 3 Yrotation Xrotation Zrotation
    JOINT LeftToe
    {
     OFFSET 0.000000 -6.418000 14.485300
     CHANNELS 3 Yrotation Xrotation Zrotation
     End Site
     {
      OFFSET 0.000000 -1.465200 6.326400
     }
    }
   }
  }
 }
}
MOTION
Frames: 11
Frame Time: 0.008333
0.000000 86.422400 0.000000 0.000000 -5.767877 0.000000 0.000000 11.653817 0.000000 0.000000 -5.885947 0.000000 0.000000 -0.000000 0.000000 0.000000 -0.000000 0.000000 0.000000 12.528835 0.000000 0.000000 0.711642 0.000000 0.000000 -0.000000 0.000000 0.000000 0.000000 -90.000000 0.000000 -2.309062 0.000000 0.000000 2.309062 0.000000 0.000000 -0.000000 0.000000 0.000000 -0.000000 90.000000 0.000000 -2.309062 0.000000 0.000000 2.309062 0.000000 0.000000 8.520406 0.000000 0.000000 1.905762 0.000000 -0.000000 -4.658285 0.000000 0.000000 -0.000000 0.000000 0.000000 8.520406 0.000000 0.000000 1.905762 0.000000 -0.000000 -4.658285 0.000000 0.000000 -0.000000 0.000000
-15.044755 126.908545 20.723173 -171.761988 -47.560752 -2.952375 -3.271206 26.296486 -1.002743 -0.519040 4.406270 -0.034027 -0.792627 7.049525 -0.139282 -2.606035 21.570569 -0.692289 -6.735293 14.464530 -0.090638 -7.255245 -10.373160 1.469856 0.602372 4.626295 1.219980 -43.829352 -17.442896 -7.417742 -149.271099 -45.932323 164.571416 -6.834220 -24.488103 -19.445827 -8.347451 1.588503 -2.865858 40.127300 -18.662867 5.401045 133.093567 -53.151918 -140.715454 3.851127 -37.933248 28.308139 -4.233850 -24.595920 -1.812156 -4.563545 77.845312 -2.842819 10.845287 -11.398732 1.606531 0.000366 -0.002618 0.000162 7.253915 4.115513 2.958498 129.286185 65.514166 149.461412 4.378464 12.727523 5.109679 0.006355 -0.011085 0.002815
-15.046666 126.908185 20.721341 -171.751516 -47.538944 -2.966190 -3.259695 26.297342 -1.010927 -0.517151 4.403663 -0.035778 -0.796390 7.038818 -0.125941 -2.594237 21.574209 -0.709857 -6.662140 14.456156 -0.055248 -7.180698 -10.385132 1.490493 0.619163 4.678812 1.223054 -43.822052 -17.397048 -7.358418 -149.221191 -45.903872 164.590404 -6.882230 -24.525997 -19.351414 -8.319158 1.594074 -2.822586 40.111286 -18.650826 5.391913 133.135741 -53.128783 -140.803198 3.791011 -37.920871 28.257453 -4.230795 -24.612501 -1.796669 -4.550667 77.846577 -2.832460 10.823545 -11.400255 1.606939 -0.001373 -0.002623 -0.000608 7.250127 4.101465 2.960842 129.289455 65.506405 149.459946 4.382827 12.708285 5.106246 0.003663 -0.008297 0.001623
-15.049683 126.909331 20.717901 -171.743400 -47.527426 -2.975474 -3.247737 26.307710 -1.023296 -0.514146 4.402689 -0.035677 -0.800907 7.027543 -0.113514 -2.583608 21.577706 -0.728406 -6.626845 14.448236 -0.015823 -7.074286 -10.400557 1.504743 0.627657 4.699396 1.243479 -43.820801 -17.372998 -7.327011 -149.112552 -45.901393 164.574845 -6.938178 -24.555923 -19.256428 -8.277318 1.601378 -2.776261 40.131807 -18.618506 5.375650 133.164477 -53.066630 -140.923831 3.735163 -37.916009 28.212840 -4.224450 -24.618353 -1.781599 -4.508134 77.849906 -2.800216 10.793458 -11.404159 1.610692 -0.004212 -0.003310 -0.001866 7.245588 4.094333 2.961143 129.298558 65.500517 149.470719 4.379804 12.699206 5.090084 0.009874 -0.010684 0.004374
-15.051571 126.908629 20.715867 -171.732003 -47.499403 -2.994185 -3.233276 26.301691 -1.027424 -0.514280 4.400429 -0.034218 -0.785641 7.036685 -0.137207 -2.574989 21.565310 -0.707698 -6.541067 14.438067 0.025726 -7.026204 -10.411519 1.538819 0.641178 4.720272 1.267451 -43.823070 -17.350070 -7.294098 -148.991707 -45.901041 164.548748 -6.993297 -24.588517 -19.153376 -8.245044 1.603693 -2.728416 40.134723 -18.600317 5.364263 133.218954 -53.007403 -141.045640 3.689197 -37.911873 28.168740 -4.211801 -24.638470 -1.762874 -4.559478 77.848277 -2.841043 10.780179 -11.408145 1.614943 -0.002334 -0.003803 -0.001034 7.241325 4.078132 2.961798 129.289312 65.494559 149.456120 4.387884 12.675852 5.104060 0.006166 -0.011412 0.002731
-15.051328 126.906405 20.715007 -171.703878 -47.457463 -3.037542 -3.227513 26.277632 -1.012480 -0.509890 4.404695 -0.041936 -0.794404 7.021927 -0.115831 -2.558705 21.575282 -0.736969 -6.460305 14.428487 0.071511 -6.982870 -10.422330 1.578646 0.655886 4.740319 1.293025 -43.739945 -17.225385 -7.261926 -149.029888 -45.837040 164.614712 -7.042871 -24.633189 -19.042035 -8.238260 1.599788 -2.680447 40.143807 -18.587734 5.358120 133.284392 -52.943564 -141.169605 3.657582 -37.912707 28.120133 -4.197926 -24.666683 -1.725739 -4.669266 77.838955 -2.935584 10.770258 -11.413458 1.629445 0.000611 -0.002266 0.000271 7.224145 4.051149 2.973012 129.300725 65.488711 149.464345 4.400627 12.637637 5.117139 0.003758 -0.008412 0.001665
-15.055087 126.908456 20.710526 -171.699232 -47.452545 -3.042971 -3.211106 26.293774 -1.026745 -0.488253 4.422222 -0.069636 -0.804507 7.001168 -0.088787 -2.551150 21.571832 -0.730430 -6.398468 14.421902 0.111177 -6.928249 -10.432220 1.619869 0.659477 4.746194 1.316935 -43.654103 -17.126603 -7.245539 -149.029782 -45.798330 164.657271 -7.099781 -24.676234 -18.923284 -8.228662 1.596109 -2.644580 40.177715 -18.559077 5.347986 133.333782 -52.852936 -141.314798 3.637537 -37.926027 28.061241 -4.183109 -24.665965 -1.715853 -4.600341 77.843516 -2.877230 10.757298 -11.413153 1.622321 0.000852 -0.001671 0.000378 7.223925 4.062358 2.969714 129.273271 65.492395 149.434811 4.402603 12.625753 5.126889 0.005820 -0.013330 0.002578
-15.057059 126.908581 20.707739 -171.696364 -47.432658 -3.055662 -3.184717 26.299961 -1.034043 -0.488734 4.414996 -0.064306 -0.801257 7.002558 -0.091308 -2.551742 21.558799 -0.704423 -6.336099 14.420123 0.132662 -6.933036 -10.436693 1.643826 0.669928 4.759958 1.317214 -43.585533 -17.043243 -7.220352 -148.994841 -45.772777 164.684935 -7.170117 -24.701705 -18.800512 -8.131078 1.599476 -2.640070 40.121454 -18.543223 5.347221 133.367700 -52.753569 -141.451933 3.630896 -37.952366 27.980295 -4.175303 -24.679051 -1.698074 -4.613938 77.843725 -2.887410 10.737301 -11.415999 1.620906 0.000686 -0.001958 0.000304 7.224095 4.069355 2.964678 129.247025 65.491706 149.406780 4.417206 12.597960 5.125063 0.000777 -0.006144 0.000344
-15.056350 126.905002 20.708323 -171.675124 -47.382215 -3.094103 -3.179169 26.261408 -1.013284 -0.476893 4.422737 -0.077831 -0.776086 7.012431 -0.121943 -2.544818 21.543805 -0.671608 -6.284543 14.418316 0.196519 -6.936074 -10.441715 1.663139 0.710864 4.806050 1.329575 -43.576483 -16.967439 -7.144509 -148.947926 -45.747366 164.709028 -7.240296 -24.720481 -18.676088 -8.096359 1.602534 -2.595717 40.149530 -18.500549 5.320217 133.379994 -52.623026 -141.629980 3.636129 -37.984515 27.872292 -4.189720 -24.721717 -1.666277 -4.640748 77.840013 -2.908773 10.724626 -11.415494 1.620458 0.000139 -0.001350 0.000061 7.208390 4.024319 2.976606 129.286949 65.485044 149.452822 4.427779 12.575201 5.104939 0.005733 -0.002248 0.002540
-15.058162 126.904187 20.706701 -171.658674 -47.356497 -3.115170 -3.175946 26.246951 -1.009375 -0.475337 4.421749 -0.078327 -0.768475 7.014691 -0.130203 -2.507949 21.554948 -0.723532 -6.241254 14.411530 0.322411 -6.820688 -10.446878 1.776566 0.719707 4.813110 1.407713 -43.548165 -16.878252 -7.102158 -148.894693 -45.721530 164.734167 -7.304786 -24.744740 -18.549622 -8.105760 1.599163 -2.499283 40.158260 -18.481836 5.296948 133.384781 -52.498435 -141.782954 3.650060 -38.009396 27.735293 -4.200210 -24.740789 -1.655774 -4.647046 77.838025 -2.913100 10.718625 -11.415471 1.618478 0.000411 -0.001857 0.000182 7.197195 4.005216 2.978368 129.300526 65.480816 149.462535 4.437037 12.553821 5.123574 0.008396 -0.004744 0.003720
-15.060916 126.904808 20.703990 -171.649561 -47.344435 -3.125635 -3.131592 26.272349 -1.028538 -0.505890 4.395044 -0.044884 -0.750959 7.021965 -0.143657 -2.493837 21.555613 -0.726406 -6.211756 14.405001 0.398101 -6.759777 -10.449568 1.890596 0.755918 4.825094 1.437929 -43.544323 -16.775963 -7.063469 -148.844585 -45.698697 164.763447 -7.370322 -24.775711 -18.419730 -8.051497 1.612173 -2.448620 40.109937 -18.479339 5.263840 133.358333 -52.355509 -141.928806 3.676587 -38.013100 27.560160 -4.202477 -24.746312 -1.651329 -4.670469 77.836368 -2.940393 10.718391 -11.418915 1.623826 0.000140 -0.002367 0.000062 7.197479 4.007515 2.963449 129.271385 65.472522 149.435984 4.470659 12.553900 5.091730 0.001827 0.003419 0.000809
